<?xml version="1.0" standalone="no"?>
<!DOCTYPE svg PUBLIC "-//W3C//DTD SVG 20010904//EN"
 "http://www.w3.org/TR/2001/REC-SVG-20010904/DTD/svg10.dtd">
<svg version="1.0" xmlns="http://www.w3.org/2000/svg"
 width="500.000000pt" height="500.000000pt" viewBox="0 0 500.000000 500.000000"
 preserveAspectRatio="xMidYMid meet">
<metadata>
Created by potrace 1.16, written by Peter Selinger 2001-2019
</metadata>
<g transform="translate(0.000000,500.000000) scale(0.100000,-0.100000)"
fill="#000000" stroke="none">
<path d="M2300 4229 c-246 -32 -503 -122 -697 -246 -425 -270 -703 -694 -779
-1188 -18 -116 -18 -384 0 -500 36 -236 134 -492 261 -683 19 -30 35 -55 35
-57 0 -2 -19 -13 -42 -23 -56 -25 -103 -76 -123 -131 -22 -63 -22 -435 0 -488
26 -62 65 -104 120 -129 l52 -24 1385 2 1385 3 49 30 c30 19 60 49 79 79 l30
49 3 211 c2 141 -1 225 -9 253 -15 55 -68 116 -124 143 -25 12 -45 23 -45 25
0 2 16 27 35 57 91 136 184 348 226 511 65 252 67 583 5 827 -196 769 -876
1297 -1661 1289 -66 -1 -149 -5 -185 -10z m470 -53 c353 -59 647 -212 900
-465 259 -260 412 -568 470 -946 18 -116 14 -364 -9 -496 -42 -242 -159 -525
-282 -681 l-31 -38 -131 0 -131 0 30 32 c87 93 198 269 253 403 83 198 116
383 108 610 -11 319 -103 578 -297 835 -71 93 -238 255 -322 311 -35 23 -89
70 -121 105 -69 75 -138 112 -282 150 -55 14 -111 32 -126 39 -43 23 -188 46
-325 52 l-132 6 -93 -46 c-52 -25 -123 -64 -159 -87 -35 -24 -81 -48 -101 -55
-154 -55 -351 -180 -488 -310 -216 -206 -359 -463 -426 -765 -22 -103 -31
-360 -15 -469 15 -110 43 -222 80 -323 55 -151 173 -349 269 -450 l35 -38
-131 0 -131 0 -31 38 c-102 130 -208 363 -260 572 -69 278 -56 615 35 895 139
429 462 795 866 985 155 72 309 119 463 139 44 6 94 13 110 15 57 8 320 -3
405 -18z m-182 -137 c53 -6 120 -19 147 -29 28 -9 64 -22 80 -28 17 -6 65 -18
108 -27 114 -25 189 -66 277 -154 42 -42 98 -89 124 -105 62 -37 106 -105 106
-160 0 -23 -12 -66 -26 -96 l-25 -55 24 23 c29 27 38 19 58 -45 9 -34 10 -52
0 -82 -13 -46 -64 -101 -92 -101 -27 0 -24 27 6 46 14 9 25 20 25 25 0 5 -19
-3 -42 -18 -39 -27 -41 -27 -52 -9 -21 36 -76 94 -131 136 l-55 42 58 28 c59
28 116 82 133 127 14 37 4 39 -11 3 -17 -42 -102 -116 -151 -132 -41 -14 -42
-13 -157 44 -63 32 -123 58 -133 58 -28 0 -33 20 -10 44 30 32 26 39 -10 20
l-32 -16 7 39 6 38 -14 -31 c-8 -18 -20 -36 -28 -40 -7 -5 -110 -9 -228 -9
-118 0 -235 -4 -258 -9 l-44 -9 22 44 c22 42 22 43 2 26 -11 -10 -25 -31 -32
-46 -9 -23 -22 -31 -73 -45 -34 -9 -108 -40 -165 -68 l-104 -50 -34 33 c-42
41 -45 32 -4 -15 l31 -35 -41 -53 c-35 -46 -80 -141 -80 -168 0 -32 -113 11
-153 59 -54 65 -55 140 -2 203 14 17 40 58 57 92 36 72 88 130 143 158 22 11
72 51 112 89 105 99 309 231 403 260 37 11 148 10 258 -2z m-702 -248 c-15
-15 -52 -41 -81 -56 -67 -34 -124 -94 -166 -176 -17 -35 -45 -81 -63 -102 -28
-36 -31 -45 -31 -112 0 -65 3 -78 30 -117 22 -30 49 -52 93 -73 l61 -30 1 -45
c0 -25 -6 -79 -14 -120 -23 -120 2 -207 84 -285 44 -43 74 -90 66 -104 -3 -5
-6 -56 -7 -113 -3 -184 61 -330 182 -418 l39 -28 -28 -10 c-53 -20 -78 -21
-130 -3 l-54 19 36 27 c29 22 36 34 36 61 0 38 -29 64 -72 64 -24 0 -27 5 -37
53 -5 28 -13 75 -16 103 -4 28 -15 65 -26 83 -35 58 -92 32 -105 -49 -12 -75
-14 -80 -37 -80 -34 0 -59 -22 -100 -89 -76 -122 -66 -197 35 -277 14 -11 30
-40 37 -67 29 -103 105 -167 199 -167 42 0 52 -4 82 -35 68 -70 153 -68 190 5
12 24 30 42 50 48 29 11 31 9 50 -28 24 -47 25 -68 4 -98 -15 -22 -15 -22
-352 -22 l-338 0 -50 53 c-134 139 -249 345 -309 552 -179 619 91 1288 650
1612 106 61 134 69 91 24z m814 -246 c209 -30 413 -133 537 -269 59 -64 83
-126 90 -231 l6 -80 -59 60 c-117 119 -321 234 -502 283 -88 23 -114 26 -287
26 -164 0 -201 -3 -273 -22 -172 -45 -278 -101 -379 -201 l-65 -65 7 54 c32
229 158 354 430 425 171 44 290 49 495 20z m945 -179 c249 -342 328 -803 209
-1213 -59 -205 -175 -412 -308 -550 l-50 -53 -200 0 c-198 0 -199 0 -181 20
13 15 21 17 31 9 13 -11 45 12 161 115 77 69 90 118 48 180 l-24 36 34 14 c39
17 65 52 68 92 1 22 -2 28 -13 25 -77 -21 -144 1 -166 55 -27 65 -19 105 50
236 35 68 74 152 86 188 30 88 31 225 2 335 -11 44 -22 119 -24 167 l-4 87 59
52 c91 80 103 126 64 239 -16 47 -22 81 -19 120 l4 54 54 -59 c30 -33 84 -100
119 -149z m-1443 -375 c97 -78 225 -125 372 -137 l75 -7 -24 -31 c-20 -26 -23
-39 -18 -70 l6 -37 17 39 c10 21 30 48 45 60 43 34 49 26 10 -13 -19 -20 -35
-41 -35 -48 0 -7 5 -4 11 6 12 21 42 22 59 2 10 -12 10 -21 2 -40 -7 -14 -16
-25 -21 -25 -21 0 -41 13 -41 26 0 8 -4 14 -10 14 -18 0 -10 -67 14 -112 22
-41 22 -46 7 -57 -13 -10 -9 -11 24 -7 22 3 72 6 111 6 l70 0 18 36 c9 21 21
60 27 87 5 28 19 61 31 74 20 21 20 23 3 23 -15 0 -16 3 -7 12 18 18 15 28 -8
28 -11 0 -38 13 -60 29 -37 26 -38 29 -18 34 12 3 51 -1 88 -10 l66 -16 -4
-107 c-4 -96 -2 -110 19 -151 l22 -44 17 55 c46 152 117 210 166 135 43 -66
38 -137 -15 -196 -35 -40 -38 -41 -73 -31 -27 7 -43 7 -63 -4 -14 -7 -32 -11
-40 -7 -10 3 -15 -1 -15 -14 0 -37 -60 -141 -106 -183 -50 -46 -185 -113 -302
-150 -65 -20 -86 -22 -180 -17 -237 14 -398 64 -458 143 -28 36 -29 42 -30
148 -1 93 -7 129 -33 218 -29 99 -30 110 -17 141 25 61 131 127 202 127 13 0
25 4 29 9 10 17 -37 34 -91 34 l-51 0 40 87 41 88 38 -53 c21 -29 61 -72 90
-94z m-438 -608 c3 -10 12 -61 21 -113 8 -52 18 -107 21 -121 5 -20 0 -29 -23
-44 -39 -24 -83 -67 -83 -79 0 -6 12 4 28 22 50 58 177 104 177 65 0 -7 -17
-32 -37 -55 -21 -24 -56 -64 -79 -90 -39 -45 -37 -68 3 -31 17 15 19 15 33 -3
17 -23 70 -131 79 -161 10 -33 -41 -57 -108 -50 -42 4 -55 10 -87 44 -38 41
-68 115 -49 121 18 6 10 19 -20 32 -16 7 -48 32 -71 57 -43 47 -44 49 -21 133
5 19 23 56 41 83 28 40 37 47 66 47 36 0 95 -46 95 -73 0 -9 -16 -33 -35 -54
l-34 -37 -51 18 c-28 10 -53 16 -56 13 -3 -3 13 -11 35 -18 34 -10 41 -17 39
-33 -2 -16 -12 -22 -43 -27 -39 -5 -39 -6 -13 -13 35 -10 58 -2 65 23 3 11 17
25 33 31 34 14 70 62 70 94 0 13 -12 38 -26 55 -27 32 -28 51 -8 154 6 30 30
36 38 10z m946 -268 c12 -23 11 -28 -11 -51 -32 -34 -108 -84 -129 -84 -10 0
-20 15 -27 42 -13 48 -10 58 18 58 22 0 94 35 104 50 11 18 31 11 45 -15z
m-453 -84 c-73 -79 -101 -139 -103 -220 -1 -62 -11 -80 -41 -81 -7 0 -15 17
-19 38 -9 49 -35 99 -74 141 -17 18 -30 34 -28 35 2 1 29 10 60 20 32 11 68
30 80 43 35 37 120 81 162 82 13 1 4 -15 -37 -58z m727 -40 l104 -70 -83 -81
-83 -82 -29 15 -28 16 25 10 c14 5 18 10 9 10 -9 1 -33 -15 -55 -35 -32 -29
-35 -35 -16 -31 28 6 28 -1 -2 -37 l-23 -30 -7 45 c-19 126 -12 281 15 331 17
31 56 17 173 -61z m-1036 -45 c34 -22 69 -55 101 -99 33 -43 32 -178 -3 -205
-52 -42 -90 -13 -111 85 -8 40 -32 106 -52 145 -21 40 -39 76 -41 81 -2 4 4 7
14 7 10 0 38 -19 63 -42 45 -43 40 -29 -8 25 -30 33 -13 35 37 3z m670 -12 c9
-2 12 -43 12 -157 l0 -154 -117 -6 c-65 -3 -152 -3 -193 1 l-75 7 -19 40 c-27
54 -28 173 -3 237 l19 48 181 -6 c100 -3 188 -7 195 -10z m526 -30 c23 -9 19
-21 -9 -28 -38 -10 -30 -26 9 -19 31 5 37 2 66 -38 17 -24 30 -52 28 -64 -3
-19 -9 -20 -88 -17 -60 2 -107 -3 -160 -16 -41 -11 -76 -19 -78 -17 -6 5 96
122 143 163 48 42 60 47 89 36z m16 -194 c0 -21 -32 -73 -72 -116 l-41 -44
-87 0 -87 0 25 65 c29 72 40 80 137 94 86 12 125 13 125 1z m-1716 -466 c21
-48 40 -93 43 -100 4 -10 -5 -14 -31 -14 -23 0 -39 5 -42 15 -4 10 -20 15 -45
15 -28 0 -39 -4 -39 -15 0 -11 -11 -15 -39 -15 l-40 0 26 58 c14 31 34 76 44
100 16 37 22 42 52 42 33 0 35 -2 71 -86z m123 56 c9 -16 20 -30 23 -30 3 0
14 14 23 30 14 23 25 30 48 30 16 0 29 -3 29 -7 0 -5 -16 -34 -35 -66 -22 -36
-35 -71 -35 -93 0 -32 -2 -34 -35 -34 -34 0 -35 1 -35 38 0 25 -12 56 -35 95
-19 32 -35 60 -35 63 0 2 15 4 34 4 28 0 38 -6 53 -30z m280 22 c7 -4 10 -17
6 -31 -5 -20 -10 -22 -40 -16 -55 10 -62 -7 -8 -24 56 -18 71 -37 61 -75 -9
-35 -64 -60 -115 -51 -54 9 -65 18 -52 44 10 18 17 20 58 14 53 -7 54 10 1 21
-67 13 -86 59 -43 101 19 20 34 25 72 25 26 0 53 -4 60 -8z m103 -27 c0 -32 2
-35 30 -35 28 0 30 3 30 35 0 33 2 35 35 35 l35 0 0 -100 0 -100 -35 0 c-33 0
-35 2 -35 35 0 32 -2 35 -30 35 -28 0 -30 -3 -30 -35 0 -33 -2 -35 -35 -35
l-35 0 0 100 0 100 35 0 c33 0 35 -2 35 -35z m320 5 c0 -29 -2 -30 -47 -32
l-48 -1 43 -4 c39 -4 42 -6 42 -34 0 -27 -2 -29 -40 -29 -22 0 -40 -4 -40 -10
0 -5 23 -10 50 -10 47 0 50 -2 50 -25 0 -25 -1 -25 -85 -25 l-85 0 0 100 0
100 80 0 80 0 0 -30z m271 14 c36 -18 59 -67 52 -107 -3 -15 -19 -38 -35 -52
-26 -22 -39 -25 -104 -25 l-74 0 0 100 0 100 65 0 c40 0 78 -6 96 -16z m237
-11 c-3 -26 -8 -29 -53 -34 l-50 -5 45 -5 c40 -4 45 -7 45 -29 0 -22 -5 -25
-42 -28 -60 -4 -54 -22 7 -22 47 0 50 -2 50 -25 0 -25 -1 -25 -85 -25 l-85 0
0 100 0 100 86 0 85 0 -3 -27z m171 18 c8 -5 11 -16 6 -30 -6 -20 -11 -22 -46
-16 -45 8 -55 -9 -11 -20 47 -11 72 -33 72 -64 0 -53 -65 -81 -139 -61 -36 9
-39 13 -32 33 8 19 15 22 56 19 51 -4 56 11 8 21 -65 13 -89 72 -43 109 24 19
104 25 129 9z m179 0 c8 -5 12 -17 10 -27 -3 -16 -11 -19 -46 -16 -51 3 -56
-14 -7 -24 41 -7 75 -45 68 -73 -10 -38 -42 -56 -99 -55 -60 0 -79 12 -69 43
5 18 11 20 52 14 34 -4 44 -3 39 5 -4 7 -14 12 -22 12 -8 0 -28 7 -44 15 -36
19 -41 64 -10 95 21 21 102 28 128 11z m207 -21 c0 -23 -5 -26 -50 -31 l-50
-6 43 -1 c40 -2 42 -4 42 -32 0 -28 -2 -30 -40 -30 -22 0 -40 -4 -40 -10 0 -5
23 -10 50 -10 47 0 50 -2 50 -25 0 -25 -1 -25 -85 -25 l-85 0 0 100 0 101 83
-3 c80 -3 82 -4 82 -28z m175 15 c39 -20 48 -58 25 -100 -16 -31 -16 -34 0
-59 l17 -26 -35 0 c-26 0 -41 7 -55 25 -11 14 -23 25 -26 25 -3 0 -6 -11 -6
-25 0 -22 -4 -25 -35 -25 l-35 0 0 100 0 100 60 0 c35 0 74 -7 90 -15z m230
-15 c0 -27 -3 -30 -30 -30 l-30 0 0 -70 0 -70 -35 0 -35 0 0 70 c0 68 -1 70
-25 70 -27 0 -41 20 -31 45 4 12 25 15 96 15 l90 0 0 -30z"/>
<path d="M2055 2791 c-22 -9 -80 -71 -68 -71 5 0 -1 -8 -12 -16 -19 -15 -19
-16 -2 -29 13 -9 15 -14 5 -18 -9 -3 -5 -11 12 -25 35 -30 40 -28 40 19 0 41
14 78 34 91 22 15 23 7 5 -29 -10 -21 -19 -46 -19 -58 0 -35 20 -92 44 -128
l25 -36 -30 -6 c-16 -4 -29 -11 -29 -17 0 -6 7 -7 18 -3 9 4 57 10 105 13 84
4 89 6 99 31 9 24 6 102 -6 174 -7 42 -32 75 -76 97 -40 20 -109 25 -145 11z"/>
<path d="M2546 2412 c-42 -22 -61 -25 -132 -24 l-83 1 14 -45 c25 -85 92 -144
162 -144 41 0 92 35 109 75 14 35 19 120 8 149 -8 20 -18 19 -78 -12z m53 -86
c10 -11 9 -21 -3 -45 -21 -39 -53 -61 -91 -61 -35 0 -95 34 -95 54 0 42 161
86 189 52z"/>
</g>
</svg>
