<?xml version="1.0" standalone="no"?>
<!DOCTYPE svg PUBLIC "-//W3C//DTD SVG 20010904//EN"
 "http://www.w3.org/TR/2001/REC-SVG-20010904/DTD/svg10.dtd">
<svg version="1.0" xmlns="http://www.w3.org/2000/svg"
 width="500.000000pt" height="500.000000pt" viewBox="0 0 500.000000 500.000000"
 preserveAspectRatio="xMidYMid meet">
<metadata>
Created by potrace 1.16, written by Peter Selinger 2001-2019
</metadata>
<g transform="translate(0.000000,500.000000) scale(0.100000,-0.100000)"
fill="#000000" stroke="none">
<path d="M2285 4669 c-442 -40 -919 -253 -1244 -553 -386 -356 -619 -794 -698
-1306 -24 -158 -24 -463 0 -620 60 -386 217 -750 452 -1045 129 -162 331 -346
515 -470 345 -231 848 -371 1265 -352 482 22 922 186 1290 482 102 82 259 238
336 335 336 420 512 981 471 1508 -24 302 -98 572 -227 827 -116 230 -221 375
-408 564 -454 459 -1095 690 -1752 630z m595 -729 c201 -37 357 -92 505 -178
103 -61 248 -204 292 -288 l32 -60 -32 -34 -32 -35 31 28 c36 32 39 29 50 -53
10 -75 -5 -91 -123 -129 -171 -55 -435 -100 -778 -132 -178 -17 -905 -18
-1055 -1 -246 27 -485 78 -508 109 -24 31 -10 150 26 227 139 296 544 511
1077 570 101 11 403 -3 515 -24z m-1608 -960 c88 -39 323 -82 538 -98 99 -8
103 -9 75 -22 -16 -7 -79 -16 -140 -20 -60 -4 -123 -13 -138 -19 -45 -18 -105
-14 -123 8 -66 77 -50 71 -196 71 -140 0 -199 15 -206 51 -9 50 104 67 190 29z
m2393 -1 c10 -32 -13 -76 -50 -93 -41 -20 -61 -20 -115 -1 -57 20 -84 19 -157
-7 -62 -23 -63 -23 -115 -4 l-52 18 -27 -32 -27 -32 -84 7 c-64 5 -98 3 -148
-10 -57 -15 -77 -16 -167 -5 -89 11 -106 11 -142 -3 -22 -9 -61 -17 -88 -17
-73 -1 -492 18 -542 25 -43 6 -43 7 -21 22 20 14 76 17 414 18 391 2 592 12
826 41 140 17 352 57 420 78 61 20 68 19 75 -5z m134 -50 c41 -21 73 -45 92
-72 29 -41 57 -112 47 -123 -3 -3 -41 1 -84 10 -157 29 -318 41 -390 27 -158
-29 -252 -115 -320 -294 -15 -40 -31 -76 -35 -80 -3 -5 -38 15 -77 43 -401
292 -893 339 -1372 129 -63 -28 -121 -51 -128 -52 -8 -1 -22 19 -32 45 -46
122 -106 168 -224 176 -46 3 -92 -1 -131 -12 -32 -8 -61 -13 -63 -11 -11 10
23 68 52 89 46 34 91 47 191 53 l90 6 25 -39 c34 -52 79 -63 164 -40 83 23
253 28 283 8 17 -11 84 -16 270 -23 137 -5 276 -12 309 -15 50 -5 71 -2 112
16 45 19 57 21 102 11 73 -16 183 -14 246 5 41 12 62 13 91 5 70 -20 111 -14
144 19 24 24 34 28 49 20 31 -17 122 -11 169 10 43 20 46 20 95 4 63 -21 124
-21 165 1 34 17 71 68 71 98 0 24 18 21 89 -14z m-1218 -328 c16 -7 -61 -10
-236 -10 -278 -1 -405 6 -383 21 17 11 588 1 619 -11z m1293 -102 c81 -22 114
-105 60 -148 -34 -27 -56 -26 -104 1 -34 20 -43 21 -70 11 -31 -12 -86 -1
-224 44 l-49 16 90 22 c50 13 108 32 129 44 43 22 109 27 168 10z m-2588 -29
c32 -16 94 -36 136 -45 208 -41 611 -74 938 -76 l125 -1 -60 -29 c-73 -35
-135 -38 -184 -8 -36 22 -47 21 -136 -4 -36 -10 -60 -11 -90 -4 -22 5 -47 9
-55 9 -8 -1 -45 -5 -81 -8 -48 -4 -82 -2 -124 11 l-58 16 -57 -35 c-73 -45
-123 -48 -188 -10 l-45 27 -51 -22 c-28 -11 -63 -21 -78 -21 -31 0 -58 23 -58
51 0 34 -18 56 -51 63 -79 16 -96 91 -24 109 47 11 86 5 141 -23z m2464 -215
c22 -26 14 -117 -14 -172 -44 -88 -122 -136 -290 -179 -106 -28 -116 -29 -116
-9 0 27 -43 43 -127 47 -46 2 -79 -1 -76 -6 4 -5 -7 -6 -23 -3 -16 3 -23 4
-16 1 10 -5 10 -9 1 -20 -10 -13 -14 -12 -30 2 -17 15 -45 18 -176 16 -29 -1
-63 -1 -75 -1 -240 2 -328 -7 -328 -31 0 -5 -15 -3 -34 5 -50 21 -328 20 -373
-2 -23 -10 -37 -12 -50 -4 -25 13 -61 15 -231 13 l-144 -2 -30 -30 c-35 -36
-41 -36 -119 -10 -122 41 -189 106 -209 204 -11 54 -2 102 22 117 6 4 38 -4
71 -18 265 -108 959 -139 1614 -73 333 33 533 75 668 140 72 34 69 34 85 15z
m-733 -389 c2 -2 -14 -40 -36 -84 l-40 -80 51 -68 51 -67 -27 -24 c-51 -43
-82 -29 -127 57 l-24 45 -3 -62 -3 -63 -48 0 -48 0 -6 68 c-4 37 -7 115 -7
175 l0 107 50 0 49 0 3 -62 3 -63 29 62 c15 34 36 64 45 67 17 5 81 0 88 -8z
m299 -146 c24 -85 44 -163 44 -172 0 -15 -9 -18 -50 -18 -47 0 -50 1 -58 33
-7 29 -12 32 -50 35 -40 3 -41 2 -48 -32 -5 -30 -11 -36 -40 -42 -59 -11 -65
-4 -49 63 40 169 68 279 72 286 3 4 34 7 70 5 l66 -3 43 -155z m-602 124 c9
-36 -2 -64 -25 -64 -18 0 -20 -6 -17 -87 3 -83 4 -88 26 -91 18 -3 22 -10 22
-42 l0 -39 -52 -6 c-29 -4 -71 -5 -93 -3 -39 3 -40 4 -43 46 -3 37 -1 42 17
42 20 0 21 6 21 89 0 85 -1 90 -22 93 -17 2 -24 11 -26 31 -6 53 0 57 97 57
87 0 89 0 95 -26z m-512 11 c6 -7 -71 -327 -82 -338 -11 -12 -113 -19 -128 -9
-11 7 -102 303 -102 332 0 6 23 10 54 10 62 0 56 9 82 -117 10 -46 20 -83 24
-83 4 0 12 43 20 95 9 67 17 98 29 105 17 10 94 14 103 5z m252 -24 c37 -35
43 -81 17 -135 l-22 -44 31 -49 31 -48 -26 -22 c-14 -13 -37 -23 -51 -23 -21
0 -30 10 -52 60 -15 32 -30 59 -34 60 -5 0 -8 -26 -8 -59 0 -58 0 -59 -32 -63
-70 -11 -68 -15 -68 179 l0 175 94 -4 c83 -3 97 -6 120 -27z m-596 -23 l-3
-43 -47 -3 c-43 -3 -48 -5 -48 -28 0 -21 5 -24 34 -24 25 0 36 -5 38 -17 8
-35 -3 -52 -36 -55 -23 -2 -32 -8 -34 -25 -3 -21 0 -23 47 -23 45 0 51 -3 57
-24 14 -57 7 -61 -101 -61 l-100 0 -3 173 -2 172 100 0 101 0 -3 -42z m1462
-356 c98 -52 110 -248 19 -315 -29 -21 -103 -33 -143 -23 -44 11 -92 62 -106
111 -16 57 -7 141 18 175 51 68 140 90 212 52z m309 0 c54 -27 74 -63 79 -136
5 -78 -9 -123 -49 -162 -29 -28 -34 -29 -122 -29 l-92 0 -3 160 c-1 87 0 165
2 172 8 20 143 17 185 -5z m-652 -12 c49 -30 66 -63 71 -144 4 -60 1 -79 -17
-115 -28 -55 -91 -86 -159 -78 -56 6 -91 31 -120 88 -45 86 -14 216 61 253 45
22 124 21 164 -4z m-902 -5 c26 -6 32 -29 16 -70 -6 -16 -16 -19 -49 -16 -57
4 -55 -19 4 -47 79 -39 94 -131 31 -190 -34 -32 -111 -39 -157 -15 -38 20 -47
44 -31 86 10 27 11 27 40 12 36 -18 71 -20 71 -2 0 6 -20 22 -44 35 -49 26
-66 55 -66 112 0 49 32 89 80 100 33 7 49 6 105 -5z m299 -1 c18 -46 -1 -84
-41 -84 -22 0 -22 -2 -25 -127 l-3 -128 -45 0 -45 0 -3 128 -3 127 -34 0 c-28
0 -36 4 -41 24 -12 48 -2 61 51 67 107 13 182 10 189 -7z m324 -26 l-3 -43
-47 -3 c-43 -3 -48 -6 -48 -27 0 -19 6 -24 33 -27 29 -3 32 -6 35 -40 3 -37 3
-38 -32 -38 l-36 0 0 -64 c0 -63 -1 -65 -30 -71 -16 -4 -39 -4 -50 0 -19 6
-20 14 -20 181 l0 174 101 0 100 0 -3 -42z m-1182 -2 c12 -48 2 -61 -49 -64
-44 -3 -47 -5 -47 -32 0 -25 4 -29 33 -32 29 -3 32 -6 32 -38 0 -32 -3 -35
-32 -38 l-33 -3 0 -65 0 -65 -47 3 -48 3 -3 178 -2 177 95 0 c92 0 95 -1 101
-24z m296 -143 c34 -122 43 -170 35 -176 -7 -4 -30 -6 -51 -5 -35 3 -41 7 -51
38 -11 32 -16 35 -53 38 -37 3 -42 1 -42 -18 0 -42 -18 -60 -60 -60 -29 0 -40
4 -40 15 0 14 66 297 75 323 3 8 27 12 73 12 l68 0 46 -167z"/>
<path d="M3200 1351 c-16 -30 -12 -107 6 -125 20 -21 58 -20 75 1 8 9 14 37
14 63 0 26 -6 54 -14 63 -19 23 -68 22 -81 -2z"/>
</g>
</svg>
