<?xml version="1.0" standalone="no"?>
<!DOCTYPE svg PUBLIC "-//W3C//DTD SVG 20010904//EN"
 "http://www.w3.org/TR/2001/REC-SVG-20010904/DTD/svg10.dtd">
<svg version="1.0" xmlns="http://www.w3.org/2000/svg"
 width="500.000000pt" height="500.000000pt" viewBox="0 0 500.000000 500.000000"
 preserveAspectRatio="xMidYMid meet">
<metadata>
Created by potrace 1.16, written by Peter Selinger 2001-2019
</metadata>
<g transform="translate(0.000000,500.000000) scale(0.100000,-0.100000)"
fill="#000000" stroke="none">
<path d="M2345 4494 c-22 -2 -87 -11 -145 -20 -424 -63 -829 -270 -1128 -577
l-82 -85 -123 -4 c-99 -4 -131 -9 -168 -27 -74 -35 -125 -86 -161 -159 l-33
-67 0 -1055 0 -1055 26 -56 c36 -76 86 -129 156 -165 53 -27 68 -29 181 -32
l124 -4 66 -70 c293 -311 694 -518 1148 -594 120 -20 441 -23 559 -5 312 48
601 159 849 325 115 77 281 218 351 298 l41 46 124 4 c108 3 131 7 173 28 77
39 123 85 159 158 l33 67 0 1050 0 1050 -23 57 c-28 70 -91 137 -163 174 -48
25 -67 28 -179 32 l-124 5 -69 74 c-83 88 -237 214 -362 295 -224 146 -493
248 -775 293 -94 15 -377 27 -455 19z m502 -173 c162 -31 319 -85 483 -168
187 -94 304 -178 465 -334 l130 -127 150 -4 c159 -4 188 -11 231 -60 57 -62
54 5 54 -1130 l0 -1043 -23 -40 c-25 -44 -72 -80 -126 -95 -20 -5 -94 -10
-165 -10 l-129 0 -74 -80 c-83 -89 -240 -219 -347 -288 -334 -214 -767 -320
-1156 -283 -462 44 -847 227 -1169 555 l-94 96 -126 0 c-69 0 -142 5 -162 10
-54 15 -101 51 -126 95 l-23 40 0 1043 c0 1135 -3 1068 54 1130 44 49 72 56
232 60 l151 4 72 79 c136 149 365 315 556 405 168 78 316 124 500 155 155 26
482 21 642 -10z"/>
<path d="M2255 4245 c-432 -69 -823 -281 -1080 -584 l-59 -71 -154 0 c-86 0
-162 -5 -173 -10 -47 -26 -49 -44 -49 -450 l0 -380 1760 0 1760 0 0 380 c0
406 -2 424 -49 450 -11 5 -86 10 -171 10 l-151 0 -132 134 c-129 131 -221 205
-343 279 -177 106 -396 190 -595 228 -148 28 -433 35 -564 14z m485 -60 c408
-58 804 -274 1054 -574 l68 -81 151 0 c126 0 153 -3 169 -17 17 -15 18 -40 18
-365 l0 -348 -1700 0 -1700 0 0 347 c0 308 2 348 17 365 14 16 34 18 180 18
89 0 163 3 163 8 0 13 152 176 225 241 93 83 256 191 380 251 160 78 317 126
525 159 89 14 336 12 450 -4z"/>
<path d="M1013 3323 c-18 -3 -23 -11 -23 -33 0 -28 2 -29 58 -32 56 -3 57 -4
60 -35 3 -28 -1 -34 -49 -59 -60 -33 -69 -52 -69 -140 l0 -64 100 0 100 0 0
35 0 35 -60 0 c-58 0 -60 1 -60 25 0 19 9 31 32 43 18 9 45 29 60 44 24 23 28
34 28 81 0 79 -20 100 -96 103 -32 1 -69 0 -81 -3z"/>
<path d="M1282 3320 c-36 -15 -44 -54 -40 -193 3 -121 4 -130 27 -148 32 -26
120 -26 152 0 23 19 24 24 24 165 0 123 -3 148 -17 162 -20 20 -111 29 -146
14z"/>
<path d="M3618 3304 c-22 -12 -28 -22 -28 -50 0 -32 2 -34 25 -28 l25 6 0
-136 0 -136 40 0 40 0 0 180 0 180 -37 0 c-21 -1 -50 -8 -65 -16z"/>
<path d="M3770 3290 c0 -30 1 -30 55 -30 38 0 55 -4 55 -13 0 -7 -20 -70 -45
-140 -25 -71 -45 -132 -45 -138 0 -6 18 -9 42 -7 l42 3 48 150 c26 83 48 162
48 178 l0 27 -100 0 -100 0 0 -30z"/>
<path d="M2126 3269 c-9 -14 -16 -43 -16 -70 0 -82 -14 -79 397 -79 411 0 388
-5 388 87 0 67 -20 87 -79 80 -28 -4 -50 -17 -80 -46 -23 -23 -47 -41 -54 -41
-7 0 -48 19 -90 43 l-77 42 -186 3 c-185 4 -187 3 -203 -19z"/>
<path d="M740 2275 l0 -385 1760 0 1760 0 0 385 0 385 -1760 0 -1760 0 0 -385z
m915 205 c3 -6 3 -30 -1 -55 l-6 -45 -74 0 -74 0 0 -35 0 -35 60 0 60 0 0 -55
0 -55 -60 0 -60 0 0 -70 0 -70 -67 0 -68 0 2 208 c1 114 2 210 2 215 1 11 279
9 286 -3z m329 -42 c9 -29 34 -120 56 -203 22 -82 43 -156 45 -162 3 -10 -14
-13 -65 -13 l-69 0 -7 35 -6 35 -59 0 -59 0 0 -35 0 -35 -70 0 -69 0 15 48 c8
26 35 117 60 202 26 85 51 161 57 168 6 7 36 12 83 12 l73 0 15 -52z m353 40
c5 -7 18 -51 28 -98 10 -47 21 -91 25 -98 3 -7 17 29 30 80 33 133 29 128 110
128 83 0 75 18 90 -200 6 -85 13 -172 16 -192 l6 -38 -60 0 -59 0 -9 118 -9
117 -33 -97 -34 -98 -52 0 c-52 0 -53 0 -64 38 -6 20 -19 64 -28 97 l-18 60
-7 -55 c-4 -30 -7 -83 -8 -117 l-1 -63 -55 0 c-53 0 -55 1 -55 28 0 35 31 373
36 390 2 8 26 12 72 12 44 0 73 -5 79 -12z m533 -203 l0 -215 -67 0 -68 0 2
208 c1 114 2 210 2 215 1 4 30 7 66 7 l65 0 0 -215z m245 55 l1 -155 64 -5
c71 -5 67 0 62 -80 l-2 -30 -127 0 -128 0 1 208 c1 114 2 211 3 215 1 4 29 7
64 5 l62 -3 0 -155z m330 71 l30 -83 27 58 c15 32 32 71 37 86 10 27 13 28 75
28 37 0 66 -4 66 -10 0 -5 -32 -71 -72 -147 -71 -135 -72 -138 -70 -205 l3
-68 -69 0 -68 0 4 63 c4 61 1 70 -62 206 -36 79 -66 147 -66 152 0 6 29 9 67
7 l68 -3 30 -84z"/>
<path d="M740 1645 c0 -165 8 -203 49 -225 11 -5 87 -10 173 -10 l153 0 84
-90 c279 -304 650 -500 1049 -556 160 -22 454 -14 596 16 376 80 696 263 952
542 l79 86 158 1 c88 1 167 6 178 11 41 22 49 60 49 225 l0 155 -1760 0 -1760
0 0 -155z m3460 -17 c0 -165 9 -158 -185 -158 l-152 0 -79 -91 c-218 -253
-529 -444 -865 -529 -182 -47 -430 -63 -619 -40 -415 50 -805 259 -1085 583
l-67 77 -156 0 c-201 0 -192 -8 -192 157 l0 123 1700 0 1700 0 0 -122z"/>
<path d="M1683 1610 c-31 -13 -42 -39 -49 -118 -10 -100 2 -179 31 -208 20
-20 35 -24 80 -24 l55 0 0 35 c0 34 -1 35 -39 35 -46 0 -51 10 -51 113 0 87
10 107 56 107 34 0 35 1 32 33 -3 31 -5 32 -48 34 -25 1 -55 -2 -67 -7z"/>
<path d="M1912 1608 c-34 -17 -45 -71 -40 -198 4 -137 14 -150 110 -150 49 0
63 4 83 25 24 23 25 29 25 153 0 162 -7 174 -96 179 -32 1 -69 -2 -82 -9z"/>
<path d="M2170 1465 c0 -152 1 -156 25 -180 20 -21 34 -25 80 -25 46 0 60 4
80 25 24 24 25 28 25 180 l0 156 -37 -3 -38 -3 -3 -140 c-3 -139 -8 -160 -39
-148 -10 4 -13 38 -13 149 l0 144 -40 0 -40 0 0 -155z"/>
<path d="M2484 1595 c-22 -22 -25 -32 -22 -92 3 -73 7 -78 83 -100 25 -7 30
-14 30 -38 0 -29 -1 -30 -58 -33 l-58 -3 3 -32 3 -32 72 -3 c86 -3 108 11 118
82 11 69 -8 113 -53 126 -20 5 -42 10 -49 10 -13 0 -21 27 -15 53 3 13 15 17
53 17 47 0 49 1 49 29 0 34 -14 41 -81 41 -40 0 -55 -5 -75 -25z"/>
<path d="M2730 1440 l0 -180 40 0 40 0 0 180 0 180 -40 0 -40 0 0 -180z"/>
<path d="M2890 1440 l0 -180 40 0 40 0 0 88 1 87 36 -87 c34 -86 36 -88 69
-88 l34 0 0 180 0 180 -35 0 -35 0 0 -82 c0 -47 -4 -78 -9 -72 -4 5 -21 42
-36 82 l-28 72 -39 0 -38 0 0 -180z"/>
<path d="M3197 1613 c-4 -3 -7 -84 -7 -180 l0 -173 90 0 90 0 0 35 0 35 -51 0
-50 0 3 38 c3 35 5 37 41 40 33 3 37 6 37 32 0 26 -4 29 -37 32 -36 3 -38 5
-41 41 l-3 37 50 0 51 0 0 35 0 35 -83 0 c-46 0 -87 -3 -90 -7z"/>
<path d="M1822 1111 c-8 -5 -12 -17 -10 -27 3 -18 26 -19 688 -19 662 0 685 1
688 19 2 10 -2 22 -10 27 -17 11 -1339 11 -1356 0z"/>
</g>
</svg>
