<?xml version="1.0" standalone="no"?>
<!DOCTYPE svg PUBLIC "-//W3C//DTD SVG 20010904//EN"
 "http://www.w3.org/TR/2001/REC-SVG-20010904/DTD/svg10.dtd">
<svg version="1.0" xmlns="http://www.w3.org/2000/svg"
 width="500.000000pt" height="500.000000pt" viewBox="0 0 500.000000 500.000000"
 preserveAspectRatio="xMidYMid meet">
<metadata>
Created by potrace 1.16, written by Peter Selinger 2001-2019
</metadata>
<g transform="translate(0.000000,500.000000) scale(0.100000,-0.100000)"
fill="#000000" stroke="none">
<path d="M710 4541 c-111 -34 -288 -191 -345 -305 -40 -80 -35 -117 28 -195
134 -165 494 -515 707 -685 47 -38 87 -70 89 -72 5 -4 -148 -148 -199 -186
-25 -18 -53 -49 -62 -67 -9 -18 -26 -40 -37 -48 -29 -19 -27 -60 5 -106 14
-21 24 -39 22 -40 -158 -90 -238 -201 -238 -332 0 -166 122 -295 298 -314 57
-6 78 -13 99 -33 121 -111 314 -205 523 -255 146 -34 417 -43 609 -19 439 56
954 259 1436 566 311 198 448 333 524 518 69 168 68 297 -5 373 l-24 25 27 65
c20 50 27 85 31 159 4 89 2 98 -25 150 -67 126 -227 182 -376 131 l-55 -19
-16 38 c-17 42 -62 84 -83 76 -7 -3 -29 6 -49 19 -47 32 -108 48 -160 42 -23
-2 -102 -32 -175 -65 -463 -210 -958 -390 -1324 -483 l-110 -28 -56 62 -56 61
14 34 c8 19 12 46 8 59 -3 13 -52 76 -109 141 -167 190 -414 421 -625 586
-199 156 -223 167 -291 147z m464 -616 c141 -127 258 -240 262 -253 5 -20 -4
-34 -52 -83 -34 -35 -66 -59 -76 -57 -26 5 -538 476 -538 496 0 9 23 43 51 75
40 44 57 57 75 55 14 -2 127 -96 278 -233z m2276 40 c-7 -8 -20 -15 -29 -15
-9 0 -40 -11 -69 -25 -30 -14 -59 -22 -65 -18 -5 3 -7 1 -4 -4 4 -6 -29 -27
-78 -49 -46 -21 -83 -40 -81 -41 4 -4 224 93 241 106 17 14 65 22 65 12 0 -6
-15 -13 -34 -17 -19 -3 -43 -15 -53 -26 -10 -11 -35 -29 -55 -39 -49 -25 -72
-69 -65 -125 l4 -42 -86 -6 c-209 -14 -292 -38 -299 -84 -2 -14 -13 -24 -30
-28 -48 -10 -100 -36 -124 -61 -13 -14 -37 -31 -54 -38 -17 -7 -42 -24 -55
-38 -34 -35 -86 -43 -114 -17 -12 12 -40 23 -61 27 -76 11 -73 25 12 54 44 15
74 28 68 28 -6 1 -44 -10 -84 -24 -40 -14 -86 -25 -102 -25 -42 0 -85 -25
-117 -71 -16 -22 -46 -58 -66 -81 l-37 -40 -39 17 c-43 20 -101 16 -129 -10
-22 -19 -56 -19 -64 1 -8 21 31 94 52 95 11 1 8 3 -7 8 -14 4 -26 11 -28 16
-1 6 63 27 143 49 358 94 833 269 1249 459 121 55 149 65 184 66 20 1 21 -1
11 -14z m141 -22 c4 -5 5 -39 2 -76 -5 -53 -10 -70 -25 -78 -25 -13 -27 -11
-44 48 -13 46 -14 47 -9 8 3 -22 6 -49 8 -60 1 -12 -4 -20 -13 -20 -16 0 -48
91 -49 141 -1 45 16 57 73 50 27 -3 53 -9 57 -13z m-146 -85 c4 -18 16 -50 26
-70 l19 -37 -25 -17 c-14 -9 -27 -15 -29 -13 -2 2 -8 13 -15 24 -10 18 -11 17
-5 -7 4 -20 1 -29 -15 -37 -12 -7 -22 -8 -26 -1 -12 19 -35 106 -35 132 0 32
32 58 71 58 23 0 29 -6 34 -32z m498 -216 c-2 -52 -39 -138 -71 -162 -27 -22
-72 -26 -103 -10 -11 6 -30 29 -44 50 -35 55 -66 74 -110 66 -19 -4 -47 -18
-62 -31 -26 -22 -28 -29 -33 -127 -5 -99 -6 -103 -29 -106 -19 -3 -22 0 -17
13 3 9 6 59 6 110 0 91 1 96 31 130 17 19 48 40 69 46 73 22 122 -2 188 -90
45 -60 99 -29 122 72 7 28 17 60 22 70 16 30 33 13 31 -31z m-848 -48 c3 -26
9 -54 12 -63 5 -13 3 -14 -7 -4 -10 9 -21 8 -51 -8 l-38 -19 -16 31 c-20 37
-30 33 -15 -7 9 -24 8 -31 -6 -41 -10 -7 -21 -13 -25 -13 -13 0 -69 93 -69
116 0 32 53 51 151 53 l57 1 7 -46z m-207 -95 l34 -38 -59 -26 c-87 -39 -107
-41 -127 -14 -31 45 -15 84 44 108 47 18 73 11 108 -30z m-1123 -45 l68 -76
-21 -44 c-12 -24 -25 -44 -30 -44 -7 0 -81 118 -91 144 -2 6 -10 19 -19 28
-13 16 -13 20 2 43 9 14 18 25 20 25 1 0 33 -34 71 -76z m455 -66 c-19 -28
-31 -61 -34 -93 l-6 -50 14 46 c17 61 26 75 36 59 5 -8 9 -7 13 5 4 9 3 13 -3
10 -6 -3 -10 -1 -10 5 0 13 60 50 83 50 9 0 17 -2 17 -4 0 -2 -16 -33 -35 -70
-19 -37 -35 -75 -35 -84 0 -9 11 6 25 34 52 105 112 140 161 93 l22 -20 -34
-52 c-24 -36 -45 -55 -69 -64 -40 -14 -41 -13 -20 27 21 41 13 37 -17 -8 -18
-27 -36 -40 -67 -48 -38 -11 -41 -10 -42 10 -1 19 -2 19 -8 -3 -6 -23 -45 -41
-121 -55 -14 -3 -48 -11 -77 -19 l-52 -15 -35 43 -35 43 24 26 c28 30 79 35
125 11 23 -12 30 -23 31 -48 l1 -32 10 32 c6 18 30 55 54 83 23 28 53 65 65
83 20 28 38 46 46 47 2 0 -11 -19 -27 -42z m1027 11 c26 -12 56 -39 76 -66 17
-25 46 -52 62 -59 17 -7 24 -13 17 -14 -21 0 -70 28 -81 47 -6 10 -11 13 -11
6 0 -11 37 -45 76 -70 18 -12 18 -12 0 -12 -12 -1 -48 28 -88 69 -71 73 -97
86 -153 77 -90 -15 -157 -116 -180 -270 -11 -71 -104 -146 -183 -147 -49 0
-96 23 -178 90 -42 33 -84 60 -94 60 -27 0 -47 -34 -65 -112 -20 -87 -32 -118
-45 -118 -6 0 -9 3 -6 8 11 17 53 183 45 175 -5 -5 -19 -43 -30 -84 -12 -41
-25 -78 -31 -84 -24 -25 46 194 73 229 38 49 101 30 203 -61 42 -38 93 -63
128 -63 12 0 41 9 64 21 49 23 84 82 84 140 0 40 45 140 86 188 57 68 151 89
231 50z m845 -55 c106 -55 110 -211 10 -410 -65 -128 -140 -205 -345 -352
-381 -273 -907 -516 -1307 -606 -223 -49 -307 -60 -490 -60 -301 0 -532 61
-743 196 l-52 33 65 6 c132 12 225 55 415 189 211 150 268 173 636 264 662
164 1137 365 1499 636 111 82 163 117 185 123 28 7 95 -3 127 -19z m-460 -41
c41 -38 44 -29 5 15 l-20 22 28 0 c30 0 75 -34 75 -56 0 -14 -40 -40 -40 -27
0 4 -5 0 -11 -10 -10 -18 -12 -18 -36 5 l-26 23 16 -25 c15 -24 15 -26 -3 -38
-17 -10 -21 -9 -31 11 -6 12 -25 36 -41 53 l-30 32 23 16 c33 23 44 20 91 -21z
m-92 -41 c28 -27 50 -53 50 -58 0 -5 -26 -26 -58 -46 l-57 -37 -20 23 c-11 13
-28 26 -37 29 -10 4 -18 16 -18 28 0 19 4 21 32 15 17 -3 44 -13 61 -21 22
-11 26 -11 18 -1 -6 7 -29 21 -51 31 -42 19 -42 31 -4 69 23 23 29 21 84 -32z
m-2242 -136 c15 -8 46 -34 70 -59 l43 -44 -37 -6 c-23 -4 -43 -2 -53 6 -10 8
-12 8 -8 1 7 -12 -22 -24 -58 -24 -24 1 -99 85 -89 101 8 14 63 38 87 39 10 0
30 -6 45 -14z m-157 -62 c24 -20 50 -45 57 -55 10 -15 9 -19 -8 -24 -13 -4
-31 3 -55 21 -20 15 -38 25 -41 22 -2 -3 7 -13 21 -22 34 -22 32 -33 -11 -40
-28 -6 -33 -10 -24 -21 9 -10 -112 47 -129 62 -3 2 15 24 39 48 57 58 90 60
151 9z m1251 -276 c3 -40 4 -74 3 -76 -2 -2 -18 -5 -38 -9 -34 -5 -35 -4 -52
41 -23 59 -32 52 -12 -8 14 -40 14 -45 0 -50 -8 -3 -19 -3 -24 0 -15 9 -47 77
-54 116 -9 47 8 57 101 58 l72 0 4 -72z m107 58 c26 -14 88 -84 80 -90 -7 -6
-138 -36 -155 -36 -14 0 -15 7 -9 47 14 94 28 107 84 79z m-283 -120 l30 -53
-74 -17 c-41 -10 -75 -16 -77 -14 -13 16 -25 52 -25 77 0 35 35 60 85 60 26 0
34 -7 61 -53z m-593 -84 c9 -10 24 -48 34 -85 16 -60 16 -69 3 -77 -12 -7 -18
-1 -28 28 -20 61 -22 65 -27 60 -3 -2 3 -26 12 -53 l16 -49 -32 -26 c-17 -15
-43 -33 -56 -40 -22 -12 -27 -11 -40 6 -15 18 -15 18 -9 -7 4 -21 0 -30 -17
-43 -30 -21 -37 -10 -45 82 -8 84 0 122 24 122 18 0 65 -44 95 -90 33 -49 16
6 -19 63 -34 55 -35 59 -19 77 15 16 71 49 86 50 3 0 13 -8 22 -18z m-238
-116 c9 -13 25 -62 36 -107 19 -79 19 -84 3 -96 -42 -31 -132 -57 -210 -61
l-81 -4 -12 33 c-6 18 -9 34 -7 36 2 3 7 -5 11 -16 3 -12 16 -26 27 -32 21
-12 21 -11 0 16 -22 28 -29 79 -13 104 6 10 12 4 20 -22 7 -19 19 -41 27 -48
10 -8 9 1 -6 32 -26 59 -25 85 5 105 14 9 27 15 29 13 1 -2 13 -26 26 -52 12
-26 24 -46 26 -44 3 2 -2 17 -11 33 -22 44 -29 92 -15 109 7 8 28 15 47 15 30
0 35 -3 30 -19 -2 -11 -1 -35 3 -53 l8 -33 1 42 c2 75 25 96 56 49z"/>
<path d="M2380 4113 c-207 -21 -418 -82 -589 -169 -58 -30 -115 -61 -125 -69
-19 -15 -19 -15 3 -39 l23 -24 111 58 c260 137 560 197 848 171 122 -11 371
-65 415 -89 19 -10 104 13 104 28 0 13 -166 70 -280 96 -166 37 -365 52 -510
37z"/>
<path d="M4088 2758 c-23 -30 -25 -39 -17 -83 13 -82 10 -288 -6 -397 -54
-359 -202 -650 -456 -899 -241 -236 -536 -382 -869 -429 -109 -16 -332 -16
-435 -1 -521 79 -954 395 -1182 864 -45 91 -87 206 -103 279 -12 53 -15 57
-47 63 -19 3 -37 5 -39 3 -2 -3 7 -45 20 -94 154 -574 620 -1021 1211 -1160
114 -27 131 -29 360 -28 225 0 247 2 352 26 354 85 660 270 880 532 240 286
371 616 390 981 6 118 -11 352 -26 368 -4 4 -19 -7 -33 -25z"/>
<path d="M3514 2193 c-9 -10 -28 -42 -42 -71 -71 -155 25 -316 188 -316 97 0
181 64 215 163 21 63 19 98 -9 126 -33 33 -120 75 -154 75 -25 0 -33 -8 -61
-59 -36 -68 -39 -96 -12 -111 31 -16 51 -12 63 15 12 27 37 32 69 15 27 -15
24 -43 -10 -79 -33 -35 -78 -41 -134 -17 -86 36 -104 108 -48 197 36 58 37 65
15 73 -29 11 -62 6 -80 -11z"/>
<path d="M3305 1832 c-53 -25 -112 -92 -121 -137 -12 -65 1 -133 33 -178 38
-53 119 -97 177 -97 60 0 144 45 179 96 21 30 30 57 34 100 4 51 1 66 -24 114
-41 77 -94 113 -176 117 -45 3 -73 -1 -102 -15z m103 -96 c59 -31 109 -106 95
-143 -27 -77 -100 -87 -166 -25 -63 59 -72 109 -28 153 33 32 58 36 99 15z"/>
<path d="M1732 1733 c-16 -6 -121 -145 -158 -209 -14 -23 -29 -57 -34 -74 -8
-27 -6 -35 15 -56 13 -13 31 -24 39 -24 9 0 34 25 56 55 24 32 48 55 59 55 20
0 71 -36 71 -51 0 -5 -16 -32 -35 -60 -19 -28 -35 -60 -35 -70 0 -23 54 -52
80 -44 41 13 193 229 206 292 5 24 1 35 -17 52 -34 32 -54 26 -93 -29 -39 -55
-44 -57 -85 -35 -44 22 -46 42 -6 100 39 56 39 76 -1 94 -26 12 -41 13 -62 4z"/>
<path d="M2890 1558 c-63 -32 -65 -35 -68 -75 -5 -63 73 -246 131 -310 25 -28
61 -29 119 -4 133 57 188 189 126 308 -36 71 -92 106 -176 111 -60 3 -73 1
-132 -30z m169 -79 c29 -27 60 -95 61 -131 0 -32 -44 -88 -70 -88 -20 0 -43
35 -83 128 -41 97 -37 110 34 111 23 1 43 -6 58 -20z"/>
<path d="M2118 1516 c-56 -20 -85 -42 -115 -88 -39 -58 -44 -165 -11 -222 34
-57 85 -94 150 -108 48 -10 62 -9 102 6 96 37 146 108 146 210 0 100 -54 172
-152 201 -62 18 -72 18 -120 1z m126 -107 c22 -17 26 -28 26 -69 0 -121 -79
-188 -153 -130 -34 27 -41 62 -22 125 25 88 90 120 149 74z"/>
<path d="M2565 1483 c-73 -9 -117 -26 -126 -50 -15 -40 5 -65 45 -58 47 9 63
-11 71 -92 12 -135 24 -187 46 -205 22 -19 66 -15 82 6 5 6 6 73 2 149 -7 152
-2 167 45 167 37 0 53 21 41 52 -5 14 -17 28 -26 32 -17 6 -126 6 -180 -1z"/>
</g>
</svg>
