<svg width="52" height="52" viewBox="0 0 52 52" fill="none" xmlns="http://www.w3.org/2000/svg">
<g filter="url(#filter0_dii_4046_41231)">
<path d="M2 11C2 5.47715 6.47715 1 12 1H40C45.5229 1 50 5.47715 50 11V39C50 44.5229 45.5228 49 40 49H12C6.47715 49 2 44.5228 2 39V11Z" fill="white"/>
<path d="M2.5 11C2.5 5.75329 6.75329 1.5 12 1.5H40C45.2467 1.5 49.5 5.75329 49.5 11V39C49.5 44.2467 45.2467 48.5 40 48.5H12C6.75329 48.5 2.5 44.2467 2.5 39V11Z" stroke="#E4E7EC"/>
<path d="M34.9986 24.5C34.9986 29.1944 31.1931 33 26.4986 33C25.4219 33 24.3919 32.7998 23.4438 32.4345C23.2705 32.3678 23.1838 32.3344 23.1149 32.3185C23.0471 32.3029 22.998 32.2963 22.9285 32.2937C22.8578 32.291 22.7803 32.299 22.6252 32.315L17.5042 32.8444C17.0159 32.8948 16.7718 32.9201 16.6278 32.8322C16.5024 32.7557 16.417 32.6279 16.3942 32.4828C16.3681 32.3161 16.4848 32.1002 16.7181 31.6684L18.3537 28.6408C18.4884 28.3915 18.5558 28.2668 18.5863 28.1469C18.6164 28.0286 18.6237 27.9432 18.6141 27.8214C18.6043 27.6981 18.5502 27.5376 18.442 27.2166C18.1545 26.3636 17.9986 25.45 17.9986 24.5C17.9986 19.8056 21.8042 16 26.4986 16C31.1931 16 34.9986 19.8056 34.9986 24.5Z" stroke="#344054" stroke-width="2" stroke-linecap="round" stroke-linejoin="round"/>
<path fill-rule="evenodd" clip-rule="evenodd" d="M26.4956 21.9493C25.5959 20.9104 24.0955 20.631 22.9683 21.5822C21.841 22.5335 21.6823 24.124 22.5675 25.2491C23.116 25.9461 24.4925 27.2191 25.4606 28.087C25.8162 28.4057 25.994 28.5651 26.2074 28.6293C26.3904 28.6844 26.6007 28.6844 26.7838 28.6293C26.9971 28.5651 27.1749 28.4057 27.5305 28.087C28.4986 27.2191 29.8751 25.9461 30.4236 25.2491C31.3088 24.124 31.1695 22.5235 30.0229 21.5822C28.8762 20.641 27.3953 20.9104 26.4956 21.9493Z" stroke="#344054" stroke-width="2" stroke-linecap="round" stroke-linejoin="round"/>
</g>
<defs>
<filter id="filter0_dii_4046_41231" x="0" y="0" width="52" height="52" filterUnits="userSpaceOnUse" color-interpolation-filters="sRGB">
<feFlood flood-opacity="0" result="BackgroundImageFix"/>
<feColorMatrix in="SourceAlpha" type="matrix" values="0 0 0 0 0 0 0 0 0 0 0 0 0 0 0 0 0 0 127 0" result="hardAlpha"/>
<feOffset dy="1"/>
<feGaussianBlur stdDeviation="1"/>
<feComposite in2="hardAlpha" operator="out"/>
<feColorMatrix type="matrix" values="0 0 0 0 0.0627451 0 0 0 0 0.0941176 0 0 0 0 0.156863 0 0 0 0.05 0"/>
<feBlend mode="normal" in2="BackgroundImageFix" result="effect1_dropShadow_4046_41231"/>
<feBlend mode="normal" in="SourceGraphic" in2="effect1_dropShadow_4046_41231" result="shape"/>
<feColorMatrix in="SourceAlpha" type="matrix" values="0 0 0 0 0 0 0 0 0 0 0 0 0 0 0 0 0 0 127 0" result="hardAlpha"/>
<feOffset dy="-2"/>
<feComposite in2="hardAlpha" operator="arithmetic" k2="-1" k3="1"/>
<feColorMatrix type="matrix" values="0 0 0 0 0.0627451 0 0 0 0 0.0941176 0 0 0 0 0.156863 0 0 0 0.05 0"/>
<feBlend mode="normal" in2="shape" result="effect2_innerShadow_4046_41231"/>
<feColorMatrix in="SourceAlpha" type="matrix" values="0 0 0 0 0 0 0 0 0 0 0 0 0 0 0 0 0 0 127 0" result="hardAlpha"/>
<feMorphology radius="1" operator="erode" in="SourceAlpha" result="effect3_innerShadow_4046_41231"/>
<feOffset/>
<feComposite in2="hardAlpha" operator="arithmetic" k2="-1" k3="1"/>
<feColorMatrix type="matrix" values="0 0 0 0 0.0627451 0 0 0 0 0.0941176 0 0 0 0 0.156863 0 0 0 0.18 0"/>
<feBlend mode="normal" in2="effect2_innerShadow_4046_41231" result="effect3_innerShadow_4046_41231"/>
</filter>
</defs>
</svg>
