<?xml version="1.0" standalone="no"?>
<!DOCTYPE svg PUBLIC "-//W3C//DTD SVG 20010904//EN"
 "http://www.w3.org/TR/2001/REC-SVG-20010904/DTD/svg10.dtd">
<svg version="1.0" xmlns="http://www.w3.org/2000/svg"
 width="500.000000pt" height="500.000000pt" viewBox="0 0 500.000000 500.000000"
 preserveAspectRatio="xMidYMid meet">
<metadata>
Created by potrace 1.16, written by Peter Selinger 2001-2019
</metadata>
<g transform="translate(0.000000,500.000000) scale(0.100000,-0.100000)"
fill="#000000" stroke="none">
<path d="M2296 4469 c-1079 -114 -1877 -1081 -1776 -2153 67 -700 470 -1291
1095 -1604 549 -275 1184 -279 1742 -12 412 197 738 524 938 943 148 310 213
653 186 979 -23 281 -85 509 -200 743 -108 218 -218 372 -389 541 -417 414
-1014 624 -1596 563z m424 -214 c63 -7 145 -21 182 -29 518 -123 960 -476
1194 -954 53 -108 124 -306 138 -384 l7 -37 -253 -1 c-334 0 -328 4 -328 -218
0 -167 9 -189 94 -216 10 -4 133 -6 273 -7 l255 0 -7 -67 c-36 -366 -177 -716
-393 -970 l-45 -54 -17 54 c-13 43 -34 86 -57 117 -2 3 -16 -7 -31 -21 l-27
-26 -58 23 c-101 42 -105 40 -43 -17 l59 -54 -23 -32 c-13 -18 -27 -32 -30
-32 -3 0 -55 49 -114 109 -68 70 -106 116 -104 127 1 9 14 25 28 36 25 18 27
18 85 -2 l60 -21 -44 45 c-43 43 -44 46 -28 64 17 18 14 20 -62 55 -44 21
-104 46 -133 58 -54 21 -223 69 -245 69 -6 0 -33 -38 -59 -85 -87 -155 -199
-277 -324 -352 -19 -12 -71 -34 -115 -49 -155 -52 -352 -31 -529 56 -107 52
-306 184 -383 254 l-62 57 -43 -22 c-72 -36 -170 -103 -227 -155 -30 -27 -52
-43 -47 -36 4 7 2 12 -4 12 -7 0 -9 -8 -5 -19 3 -11 1 -22 -4 -26 -20 -12 -60
-91 -74 -143 l-13 -52 -52 64 c-220 275 -351 601 -387 968 l-7 67 208 3 c225
3 237 6 268 59 13 21 16 56 16 161 0 114 -3 138 -20 165 -10 17 -28 37 -40 43
-13 7 -90 11 -206 11 l-186 0 6 42 c12 76 83 272 139 384 95 188 185 312 336
463 154 153 273 242 441 329 329 169 673 231 1040 186z m-1900 -1548 c0 -22
-23 -37 -57 -37 -18 0 -33 -4 -33 -10 0 -5 13 -10 29 -10 39 0 49 -27 15 -40
-14 -6 -30 -10 -35 -10 -5 0 -9 -4 -9 -10 0 -5 18 -10 41 -10 36 0 40 -2 37
-22 -3 -21 -9 -23 -65 -26 l-63 -3 0 73 c0 117 1 118 76 118 46 0 64 -4 64
-13z m119 -4 c10 -17 10 -17 11 0 0 14 10 17 70 17 63 0 70 -2 70 -20 0 -13
-7 -20 -19 -20 -16 0 -20 -11 -26 -75 -6 -71 -8 -75 -31 -75 -23 0 -24 3 -24
70 0 63 -2 70 -19 70 -11 0 -23 -4 -26 -10 -11 -17 -45 -11 -46 8 0 13 -2 13
-6 3 -4 -9 6 -24 22 -37 30 -24 36 -63 15 -89 -25 -30 -116 -11 -103 21 4 11
13 13 34 9 38 -9 37 8 -1 35 -35 25 -39 61 -10 90 25 25 75 26 89 3z m2945 -6
c9 -14 6 -26 -11 -57 -27 -46 -28 -50 -8 -50 20 0 20 -46 -1 -54 -9 -3 -33 -6
-55 -6 -34 0 -39 3 -39 23 0 12 6 31 13 42 8 11 22 33 33 49 l18 29 -21 -12
c-12 -6 -26 -11 -32 -11 -15 0 -14 57 2 64 27 11 90 1 101 -17z m122 -2 c12
-18 15 -39 12 -75 -8 -79 -55 -114 -100 -73 -26 24 -25 111 3 147 26 34 63 34
85 1z m142 -8 c2 -16 -6 -42 -18 -62 l-22 -35 21 0 c24 0 29 -28 9 -48 -18
-18 -97 -15 -104 3 -4 8 8 37 25 63 36 57 38 67 12 52 -28 -15 -31 -13 -31 19
0 34 11 41 65 38 36 -2 40 -5 43 -30z m109 25 c37 -24 38 -122 2 -161 -25 -27
-53 -27 -80 0 -18 18 -20 30 -17 70 8 79 50 120 95 91z m-2835 -1224 c28 -19
30 -25 24 -62 -3 -23 -9 -52 -12 -66 -6 -20 -1 -17 27 17 39 48 45 50 78 24
22 -17 23 -21 10 -39 -34 -46 -182 -227 -188 -229 -3 -1 -19 8 -34 21 l-29 23
22 73 c12 39 20 74 18 76 -2 2 -23 -21 -47 -51 -23 -30 -45 -55 -49 -55 -4 0
-20 11 -37 24 l-29 23 104 122 c58 66 107 121 108 121 2 0 18 -10 34 -22z
m1986 -142 l106 -102 -37 -28 -37 -28 -21 26 -20 26 -25 -30 c-20 -24 -23 -33
-15 -49 10 -17 6 -24 -24 -47 -20 -15 -37 -25 -39 -23 -24 24 -100 291 -91
319 8 25 52 49 77 42 11 -2 67 -51 126 -106z m-1664 -60 c19 -8 37 -24 41 -35
6 -20 -48 -264 -65 -291 -6 -10 -16 -9 -44 1 -34 12 -37 16 -34 48 3 30 -1 36
-22 41 -17 5 -31 1 -46 -12 -20 -18 -23 -18 -58 -2 -20 10 -36 22 -36 27 0 8
219 237 227 237 2 0 19 -6 37 -14z m1320 -8 c14 -13 28 -35 32 -50 5 -22 1
-29 -25 -42 -39 -21 -40 -21 -52 12 -10 26 -11 26 -25 7 -17 -23 -10 -72 18
-127 19 -40 42 -49 52 -22 4 11 2 15 -8 11 -17 -7 -44 59 -30 73 23 23 68 38
85 30 24 -13 42 -74 35 -114 -11 -55 -80 -103 -132 -90 -86 22 -137 222 -73
290 44 48 86 55 123 22z m-1069 -97 c6 -9 12 -43 15 -76 l5 -60 43 63 c44 65
67 76 96 46 20 -19 20 -13 -13 -174 l-27 -135 -35 3 c-47 5 -53 14 -41 63 l11
42 -29 -31 c-34 -38 -58 -34 -67 11 l-6 31 -12 -39 c-10 -38 -13 -40 -45 -37
-19 2 -38 7 -42 11 -4 3 6 58 23 121 56 214 46 192 82 184 18 -3 37 -14 42
-23z m832 -123 c17 -84 27 -156 24 -159 -3 -4 -20 -10 -38 -14 -30 -6 -34 -3
-78 62 -44 63 -47 65 -41 33 22 -116 22 -118 -15 -128 -19 -5 -37 -6 -41 -3
-4 3 -16 62 -27 131 -12 69 -23 138 -26 153 -4 23 0 29 22 38 42 16 68 3 102
-48 32 -50 36 -46 22 25 -8 39 -6 44 13 52 49 20 51 18 83 -142z m-383 65 c7
-16 24 -77 36 -138 12 -60 24 -120 27 -133 5 -22 3 -23 -43 -20 -46 3 -49 5
-52 31 -3 24 -7 28 -25 23 -12 -3 -27 -6 -34 -6 -6 0 -13 -10 -15 -22 -3 -20
-10 -23 -51 -26 -48 -3 -48 -3 -41 25 14 60 57 190 80 240 22 51 24 53 63 53
34 0 43 -4 55 -27z"/>
<path d="M2565 3877 c-37 -37 -55 -90 -54 -157 1 -88 60 -138 129 -110 85 35
107 245 30 285 -44 23 -69 18 -105 -18z"/>
<path d="M2403 3840 c3 -42 2 -60 -6 -60 -7 0 -22 -3 -34 -6 -22 -6 -23 -4
-23 50 l0 56 -35 0 c-41 0 -40 7 -28 -187 l6 -113 40 0 40 0 -6 59 c-6 55 -5
59 19 70 14 6 27 11 29 11 2 0 7 -27 11 -60 7 -60 7 -60 40 -60 18 0 35 3 38
8 2 4 0 48 -5 97 -5 50 -12 114 -15 143 l-5 52 -36 0 -36 0 6 -60z"/>
<path d="M2779 3879 c-1 -8 0 -22 1 -33 1 -11 -3 -15 -9 -12 -7 4 -8 1 -5 -8
3 -9 2 -16 -4 -16 -15 0 -44 -138 -36 -172 12 -59 121 -75 171 -25 24 24 80
218 68 237 -3 6 -19 10 -34 10 -28 0 -29 -3 -50 -95 -17 -70 -28 -99 -44 -110
-20 -14 -23 -14 -31 5 -7 15 -3 50 13 116 13 52 22 97 20 99 -2 2 -16 6 -32
10 -19 5 -27 3 -28 -6z"/>
<path d="M2011 3758 c-23 -51 -30 -59 -36 -43 -22 65 -23 66 -52 53 -16 -7
-29 -13 -31 -14 -2 -1 53 -174 74 -229 4 -11 -33 22 -82 73 -49 51 -94 92
-101 92 -7 0 -24 -10 -38 -23 l-26 -22 15 -90 c16 -91 41 -193 49 -201 2 -3
18 3 36 13 26 15 30 23 26 43 -4 19 1 32 18 49 l25 22 19 -27 20 -26 39 24
c21 14 49 28 62 32 27 9 27 13 2 70 -10 25 -16 46 -11 46 4 0 30 -16 57 -35
27 -19 52 -35 56 -35 4 0 14 13 23 30 l15 30 -55 36 c-30 20 -55 42 -55 48 0
6 9 35 20 63 l20 53 -30 15 -31 16 -28 -63z"/>
<path d="M3027 3799 c-24 -14 -49 -73 -40 -96 4 -10 17 -32 30 -49 13 -17 23
-38 23 -47 0 -24 -36 -21 -61 4 l-21 21 -22 -22 -21 -21 30 -25 c60 -49 126
-50 159 -2 23 32 20 66 -10 109 -26 38 -29 79 -6 87 8 2 12 -7 12 -26 0 -24 5
-31 27 -36 17 -5 29 -3 34 6 11 16 11 59 1 74 -21 32 -98 45 -135 23z"/>
<path d="M3173 3657 c-73 -122 -86 -147 -81 -153 2 -2 42 -21 89 -42 l84 -39
16 26 c20 32 12 43 -46 66 -47 18 -50 21 -36 44 8 12 16 12 56 -3 25 -10 48
-17 49 -15 2 2 9 14 15 26 11 21 8 25 -33 45 -28 13 -42 26 -39 35 7 18 23 16
80 -8 l48 -20 17 21 c10 12 18 26 18 30 0 8 -57 37 -146 76 l-31 13 -60 -102z"/>
<path d="M1521 3508 l-63 -62 16 -31 c9 -16 49 -70 87 -118 l71 -89 66 64 c37
34 69 67 71 71 3 9 -28 47 -39 47 -3 0 -25 -16 -48 -36 -62 -53 -88 -27 -32
31 54 55 10 98 -45 45 -29 -28 -33 -29 -45 -15 -11 14 -7 22 30 60 41 42 43
46 30 70 -7 14 -18 25 -24 25 -6 0 -40 -28 -75 -62z"/>
<path d="M1359 3348 c-29 -35 -60 -71 -68 -81 -13 -16 -12 -20 13 -45 l27 -27
23 28 23 29 69 -63 c38 -35 62 -55 54 -43 -8 11 -2 7 13 -9 l29 -29 23 22 23
21 -87 84 -86 83 23 24 22 24 -24 23 -23 22 -54 -63z"/>
<path d="M3107 3238 c-27 -5 -106 -34 -175 -65 -301 -132 -405 -158 -577 -147
-155 10 -288 -23 -412 -102 -60 -38 -163 -140 -163 -161 0 -18 143 -86 226
-107 173 -45 347 -39 517 18 53 17 97 31 97 29 0 -9 -133 -67 -207 -90 -78
-24 -105 -27 -233 -27 -121 0 -158 3 -223 22 -61 17 -167 61 -218 89 -9 5 -56
-104 -68 -157 -6 -25 -11 -60 -11 -77 l0 -33 53 0 c131 0 357 -71 496 -155
127 -77 277 -219 342 -325 9 -14 24 -38 34 -55 25 -40 9 -23 -53 56 -139 178
-335 310 -553 373 -90 26 -213 46 -280 46 -37 0 -39 -2 -39 -31 0 -101 74
-268 162 -364 61 -67 188 -157 269 -193 128 -55 270 -65 369 -26 68 27 152 83
144 96 -5 7 -3 8 6 3 16 -10 118 97 200 211 61 84 63 88 51 118 -62 153 -61
329 1 468 l23 53 -22 45 c-50 98 -6 210 99 255 61 25 147 15 190 -23 22 -19
35 -9 79 59 32 50 73 164 64 179 -6 9 -97 31 -123 29 -9 -1 -39 -5 -65 -11z"/>
<path d="M3326 3188 c-2 -7 -12 -44 -22 -83 -10 -38 -32 -98 -51 -133 -31 -59
-32 -65 -21 -106 39 -145 -136 -276 -277 -209 -43 21 -46 19 -75 -77 -37 -115
-36 -270 1 -367 9 -25 13 -21 97 103 77 113 93 132 137 154 116 57 237 134
285 180 75 73 94 123 95 245 0 121 -18 167 -96 250 -53 56 -67 64 -73 43z"/>
<path d="M1228 3173 c-47 -54 -46 -106 4 -148 36 -30 50 -31 107 -4 41 18 46
18 60 4 15 -15 13 -19 -18 -44 -30 -24 -32 -30 -22 -49 14 -27 16 -27 52 -1
58 41 74 107 38 153 -24 30 -66 34 -122 11 -44 -18 -42 -18 -61 1 -21 21 -11
37 15 23 17 -8 23 -7 35 8 19 25 17 41 -5 53 -30 15 -66 12 -83 -7z"/>
<path d="M1582 2593 c-90 -172 -130 -374 -103 -518 30 -161 164 -326 381 -467
219 -143 345 -191 505 -191 262 0 455 152 625 493 75 149 95 176 275 360 143
147 165 174 202 250 23 47 45 98 49 115 7 27 3 25 -48 -27 -60 -62 -154 -126
-268 -183 -87 -43 -94 -51 -197 -210 -201 -312 -314 -433 -478 -511 -178 -86
-388 -56 -602 86 -170 111 -277 261 -324 449 -29 115 -23 263 14 371 14 41 24
76 23 78 -2 1 -26 -42 -54 -95z"/>
</g>
</svg>
