<?xml version="1.0" standalone="no"?>
<!DOCTYPE svg PUBLIC "-//W3C//DTD SVG 20010904//EN"
 "http://www.w3.org/TR/2001/REC-SVG-20010904/DTD/svg10.dtd">
<svg version="1.0" xmlns="http://www.w3.org/2000/svg"
 width="500.000000pt" height="500.000000pt" viewBox="0 0 500.000000 500.000000"
 preserveAspectRatio="xMidYMid meet">
<metadata>
Created by potrace 1.16, written by Peter Selinger 2001-2019
</metadata>
<g transform="translate(0.000000,500.000000) scale(0.100000,-0.100000)"
fill="#000000" stroke="none">
<path d="M2305 4489 c-307 -29 -638 -147 -898 -318 -447 -295 -752 -741 -862
-1261 -151 -717 109 -1470 670 -1939 537 -448 1254 -585 1915 -365 592 197
1056 656 1259 1247 241 703 71 1484 -443 2025 -419 441 -1031 669 -1641 611z
m419 -99 c821 -94 1492 -725 1648 -1547 30 -159 32 -513 4 -668 -34 -189 -86
-343 -173 -519 -247 -500 -693 -862 -1236 -1001 -158 -40 -282 -55 -454 -55
-238 0 -397 25 -612 96 -383 126 -711 369 -957 710 -120 167 -236 422 -293
647 -50 195 -66 497 -36 706 107 749 641 1367 1361 1571 221 63 515 86 748 60z"/>
<path d="M2289 4349 c-179 -19 -391 -79 -569 -162 -1175 -547 -1449 -2087
-533 -3003 275 -275 628 -455 1018 -520 152 -26 438 -26 590 0 905 151 1565
925 1565 1836 0 724 -420 1380 -1080 1687 -306 142 -650 198 -991 162z m413
-60 c295 -32 600 -151 861 -336 100 -71 304 -272 378 -373 435 -590 478 -1364
112 -1990 -84 -142 -155 -232 -288 -365 -178 -178 -351 -294 -575 -386 -364
-150 -749 -179 -1126 -84 -802 201 -1364 920 -1364 1745 0 835 568 1553 1385
1751 198 47 408 60 617 38z"/>
<path d="M2566 4018 c-9 -73 -19 -143 -22 -155 -5 -24 3 -27 73 -36 l32 -3 7
58 c8 66 23 94 48 85 13 -5 16 -15 11 -42 -17 -111 -17 -104 7 -109 13 -3 37
-7 54 -10 l31 -5 13 90 c14 106 5 140 -42 160 -22 9 -38 9 -65 1 l-35 -11 6
50 7 49 -33 0 c-18 0 -42 3 -54 6 -20 5 -22 -1 -38 -128z"/>
<path d="M2305 4056 c-92 -40 -75 -126 29 -141 64 -10 47 -28 -21 -23 l-54 5
3 -36 3 -36 57 -3 c98 -5 167 42 152 103 -7 29 -53 55 -98 55 -14 0 -28 5 -31
10 -4 6 15 10 50 10 l56 0 -3 33 c-3 32 -4 32 -58 34 -30 2 -69 -3 -85 -11z"/>
<path d="M1976 3985 c-32 -13 -63 -28 -67 -32 -5 -5 2 -21 14 -36 22 -28 22
-28 59 -13 80 34 93 13 15 -24 -65 -31 -82 -66 -50 -108 25 -34 74 -41 111
-15 15 10 32 18 37 18 23 1 105 28 105 35 0 10 -35 110 -50 142 -13 28 -64 58
-97 58 -10 0 -45 -11 -77 -25z"/>
<path d="M2900 3883 c-13 -43 -25 -83 -27 -88 -2 -6 19 -18 47 -27 38 -12 52
-13 56 -5 19 52 53 161 51 162 -2 2 -99 35 -102 35 -1 0 -12 -35 -25 -77z"/>
<path d="M3261 3783 l-92 -108 38 -32 c21 -18 42 -33 48 -33 5 0 26 19 47 43
l37 42 -17 -63 c-14 -54 -14 -64 -2 -77 13 -12 21 -10 64 16 26 17 50 29 52
27 2 -2 -8 -21 -21 -41 -14 -20 -25 -40 -25 -46 0 -10 79 -76 84 -70 8 12 154
226 159 235 4 6 -14 26 -40 44 l-46 34 -60 -33 c-32 -18 -60 -31 -62 -29 -2 2
3 33 11 68 l15 65 -38 32 c-21 18 -43 33 -49 33 -5 0 -52 -48 -103 -107z"/>
<path d="M1561 3855 c-19 -14 -39 -26 -44 -28 -7 -2 126 -228 153 -260 4 -5
28 4 53 20 l45 28 -35 57 c-35 56 -38 88 -9 88 8 0 31 -27 51 -59 l36 -60 44
27 c24 15 45 29 45 32 0 3 -22 40 -50 83 -56 87 -85 106 -133 86 -16 -7 -37
-25 -47 -41 l-17 -28 -27 40 c-14 22 -27 40 -29 40 -1 -1 -18 -12 -36 -25z"/>
<path d="M2345 3669 c-261 -35 -516 -166 -700 -361 -328 -344 -413 -850 -219
-1293 108 -245 344 -481 589 -589 316 -138 654 -138 970 0 246 108 475 338
588 589 165 369 132 794 -90 1133 -68 105 -221 261 -319 325 -134 88 -285 152
-430 182 -96 20 -294 27 -389 14z m122 -55 c-3 -4 3 -18 13 -32 11 -13 20 -32
20 -41 0 -9 8 -3 20 16 31 51 71 65 97 33 28 -34 10 -90 -29 -90 -24 0 -23 -3
12 -38 35 -36 37 -45 10 -72 -22 -22 -51 -26 -80 -10 -15 8 -18 7 -14 -4 3 -9
37 -18 101 -26 90 -11 133 -21 178 -40 190 -83 266 -132 377 -244 195 -196
280 -400 283 -681 3 -216 -35 -326 -154 -444 -106 -106 -316 -204 -491 -230
-126 -19 -402 -30 -497 -19 -105 11 -354 73 -368 90 -5 7 -45 30 -87 51 -185
91 -283 257 -310 528 -10 102 -10 130 5 214 31 174 90 292 222 441 101 114
274 227 420 274 39 13 75 26 80 30 11 8 128 29 185 33 29 2 36 6 38 27 3 21 2
22 -11 11 -24 -19 -78 -17 -93 4 -24 33 -17 65 18 79 l31 14 -24 12 c-29 16
-39 29 -39 55 0 31 14 46 51 55 19 4 36 8 38 9 2 1 1 -2 -2 -5z"/>
<path d="M2702 3213 c-27 -40 -40 -78 -72 -200 l-28 -108 -1 151 c-1 121 -4
154 -16 164 -23 19 -44 4 -68 -47 -27 -60 -29 -206 -4 -298 9 -32 15 -60 14
-61 -1 -2 -28 43 -60 99 -99 174 -149 230 -191 214 -24 -10 -20 -70 9 -127 14
-28 56 -82 93 -122 37 -39 59 -69 50 -65 -85 31 -137 31 -231 1 -60 -20 -150
-101 -185 -168 -24 -46 -27 -61 -27 -156 1 -127 18 -172 97 -257 67 -71 148
-123 318 -206 74 -36 147 -73 161 -83 l26 -17 99 74 c124 92 318 286 362 360
121 207 101 426 -45 491 -94 41 -260 10 -342 -65 -22 -20 -21 -17 8 41 45 89
88 226 96 303 11 100 -21 142 -63 82z"/>
<path d="M1411 3633 c-30 -15 -111 -104 -111 -122 0 -4 14 -14 31 -22 32 -15
32 -15 70 25 49 53 62 40 15 -15 -44 -52 -47 -89 -10 -118 47 -37 99 -20 124
38 7 17 16 29 20 26 4 -2 24 14 46 36 l39 41 -50 45 c-57 53 -103 83 -125 83
-8 0 -30 -8 -49 -17z"/>
<path d="M3634 3489 c-45 -13 -76 -51 -81 -102 -13 -117 116 -207 207 -145 67
46 71 132 9 203 -39 44 -83 59 -135 44z"/>
<path d="M1175 3356 l-30 -56 23 -40 c12 -22 20 -40 16 -40 -3 0 -33 16 -67
36 -67 39 -67 40 -103 -28 -17 -32 -29 -22 143 -122 l112 -65 25 44 c14 24 26
46 26 49 0 3 -15 13 -32 23 l-33 18 49 5 c47 5 50 7 78 57 l30 53 -74 -6 -73
-6 -30 67 -30 67 -30 -56z"/>
<path d="M3805 3166 c-70 -31 -92 -100 -57 -179 25 -55 53 -74 74 -49 27 31
29 41 13 65 -18 28 -11 54 16 62 25 8 49 -11 49 -40 0 -18 7 -24 37 -28 49 -8
56 -1 49 46 -9 56 -40 102 -80 121 -41 19 -61 20 -101 2z"/>
<path d="M1023 3015 c-26 -18 -50 -77 -59 -145 l-7 -51 39 3 c36 3 39 5 47 45
4 23 15 47 24 55 15 12 16 10 9 -12 -20 -67 -19 -107 3 -129 22 -22 61 -27 90
-11 25 13 45 64 37 94 -3 13 -1 26 4 28 6 2 17 24 25 50 l14 48 -66 20 c-77
24 -131 26 -160 5z"/>
<path d="M3935 2884 c-71 -14 -130 -26 -131 -27 -1 -1 3 -26 8 -55 7 -34 15
-51 23 -48 6 2 38 7 70 11 43 6 59 4 66 -6 13 -22 -9 -37 -65 -44 -29 -4 -58
-10 -64 -13 -10 -7 -1 -86 12 -99 4 -4 46 1 94 10 92 17 132 44 132 88 0 26
-26 76 -42 82 -7 2 5 8 27 11 63 12 66 13 60 41 -3 14 -7 36 -10 50 -7 31 -10
31 -180 -1z"/>
<path d="M867 2634 c-4 -42 -7 -108 -7 -146 l0 -68 45 0 45 0 0 41 0 41 103
-4 102 -3 3 58 3 57 -78 0 c-113 0 -123 4 -123 51 0 26 -4 39 -14 39 -7 0 -27
3 -43 6 l-30 6 -6 -78z"/>
<path d="M3850 2475 l0 -55 90 0 90 0 0 55 0 55 -90 0 -90 0 0 -55z"/>
<path d="M967 2172 c-28 -31 -20 -55 36 -110 l53 -52 52 53 c55 56 64 83 34
110 -21 19 -45 21 -72 7 -13 -7 -21 -7 -25 0 -10 17 -61 11 -78 -8z"/>
<path d="M3857 2172 c-28 -30 -20 -55 36 -110 l52 -52 53 51 c56 55 65 84 34
112 -21 19 -45 21 -72 7 -13 -7 -21 -7 -25 0 -10 17 -61 11 -78 -8z"/>
</g>
</svg>
